<svg xmlns:xlink="http://www.w3.org/1999/xlink" width="32" height="32" fill="none" xmlns="http://www.w3.org/2000/svg" class="vpn447p8" viewBox="0 0 32 32">
    <path fill-rule="evenodd" clip-rule="evenodd" d="M7 10a2 2 0 012-2h12a2 2 0 012 2v2.62c-.073.088-.14.185-.199.287L20.6 16.72V13a.6.6 0 00-.6-.6h-1.53l.567-1.132a.6.6 0 00-1.074-.536L17.13 12.4h-.259l-.833-1.668a.6.6 0 00-1.074.536l.566 1.132H14a.6.6 0 00-.6.6v4a.6.6 0 00.6.6h2.4v.8h-2.9a.6.6 0 100 1.2h2.9V21a.6.6 0 101.2 0v-1.4h1.337l-.198.343c-.181.314-.28.669-.288 1.031l-.035 1.703c-.012.59.212 1.044.566 1.323H9a2 2 0 01-2-2V10zm7.6 3.6h1.8v.8h-1.8v-.8zm0 2v.8h1.8v-.8h-1.8zm3 0v.8h1.8v-.8h-1.8zm1.8-1.2v-.8h-1.8v.8h1.8zm-1.8 4v-.8H20a.601.601 0 00.096-.008l-.466.808H17.6zM21 24h.01H21zM10 10.872a.6.6 0 000 1.2h1.4v1.8H10a.6.6 0 00-.6.6v2.5a.6.6 0 00.6.6h1.4v2.3H10a.6.6 0 000 1.2h2a.6.6 0 00.6-.6v-3.5a.6.6 0 00-.6-.6h-1.4v-1.3H12a.6.6 0 00.6-.6v-3a.6.6 0 00-.6-.6h-2z" fill="#FFFFFF" fill-opacity="0.9"></path>
    <path d="M24.262 14.514a.5.5 0 01.683-.182l1.284.742a.5.5 0 01.183.684l-3.83 6.602a.5.5 0 01-.23.206l-1.528.678a.2.2 0 01-.28-.162l-.177-1.661a.5.5 0 01.065-.304l3.83-6.603z" fill="#FFFFFF" fill-opacity="0.9"></path>
</svg>