<svg xmlns:xlink="http://www.w3.org/1999/xlink" viewBox="0 0 32 32" fill="none" xmlns="http://www.w3.org/2000/svg"   focusable="false" style="font-size:32px" width="1"  height="1" >
    <path fill-rule="evenodd" clip-rule="evenodd" d="M7.5 10C7.5 8.89543 8.39543 8 9.5 8H22.5C23.6046 8 24.5 8.89543 24.5 10V22C24.5 23.1046 23.6046 24 22.5 24H9.5C8.39543 24 7.5 23.1046 7.5 22V10ZM10.5 14.5L10.5 12.5L11.9986 12.5L11.9986 11L13.9986 11L13.9986 13.5C13.9986 14.0523 13.5509 14.5 12.9986 14.5L10.5 14.5ZM20 11H18V13.498C18 14.0503 18.4477 14.498 19 14.498H21.5V12.498H20V11ZM20 19.5H21.5V17.5H19C18.4477 17.5 18 17.9477 18 18.5V21H20V19.5ZM12 21V19.502H10.5V17.502H13C13.5523 17.502 14 17.9497 14 18.502V21H12Z" fill="#FFFFFF" fill-opacity="0.9"></path>
</svg>