<svg xmlns:xlink="http://www.w3.org/1999/xlink" viewBox="0 0 32 32" fill="none" xmlns="http://www.w3.org/2000/svg"   focusable="false" style="font-size:32px" width="1"  height="1" >
    <path fill-rule="evenodd" clip-rule="evenodd" d="M9.5 8C8.39543 8 7.5 8.89543 7.5 10V22C7.5 23.1046 8.39543 24 9.5 24H22.5C23.6046 24 24.5 23.1046 24.5 22V10C24.5 8.89543 23.6046 8 22.5 8H9.5ZM19.5 19H17.9986V21H20.5C21.0523 21 21.5 20.5523 21.5 20V17.5H19.5V19ZM12.5 19V17.5H10.5V20C10.5 20.5523 10.9477 21 11.5 21H13.9986V19H12.5ZM12.5 13H13.9986V11H11.5C10.9477 11 10.5 11.4477 10.5 12V14.5H12.5V13ZM19.5 13H17.9986V11H20.5C21.0523 11 21.5 11.4477 21.5 12V14.5H19.5V13Z" fill="#FFFFFF" fill-opacity="0.9"></path>
</svg>