<svg xmlns:xlink="http://www.w3.org/1999/xlink" width="20" height="20" fill="none" xmlns="http://www.w3.org/2000/svg" class="" viewBox="0 0 20 20"><mask id="like_svg__a" maskUnits="userSpaceOnUse" x="0" y="0" width="20" height="20" style="mask-type: alpha;" fill="none"><path fill="#D9D9D9" d="M0 0h20v20H0z"></path></mask><g mask="url(#like_svg__a)" fill="none"><path d="M9.798 3.842a.5.5 0 00.77-.06c.731-1.044 1.944-1.614 3.319-1.614 2.59 0 4.782 2.262 4.782 4.981l-.002.184a12.694 12.694 0 01-.001.108c0 .01 0 .025.003.043-.013.522-.1.967-.266 1.569-.061.086-.111.179-.152.262a5.07 5.07 0 00-.15.346c-.15.235-.224.38-.315.618-1.02 1.697-2.696 3.441-4.18 4.812a49.967 49.967 0 01-1.947 1.703l-.58.476-.057.047-.017.014c-.139.113-.264.216-.318.27-.254.254-.385.373-.684.373-.3 0-.43-.119-.685-.374-.055-.055-.19-.16-.335-.276l-.035-.028-.025-.02c-.176-.14-.41-.323-.684-.546a43.977 43.977 0 01-2.142-1.85c-1.625-1.501-3.379-3.394-4.208-5.192l-.007-.014c-.106-.212-.241-.61-.353-1.057a6.216 6.216 0 01-.192-1.13 1.537 1.537 0 00.002-.125v-.027c-.002-.048-.003-.107-.003-.186 0-2.72 2.191-4.981 4.782-4.981 1.36 0 2.611.563 3.68 1.674z" fill="#FF375B" stroke="#AD2342" stroke-linejoin="round"></path></g><defs><linearGradient id="like_svg__paint0_linear_30891_122313" x1="10.003" y1="1.668" x2="10.003" y2="18.474" gradientUnits="userSpaceOnUse"><stop stop-color="#FF4370"></stop><stop offset="1" stop-color="#FF375B"></stop></linearGradient></defs></svg>